<svg xmlns="http://www.w3.org/2000/svg" xmlns:xlink="http://www.w3.org/1999/xlink" fill="none" version="1.1" width="24" height="17" viewBox="0 0 24 17"><path d="M18.333565,8.719965Q18.101486,7.5013146,17.913864,6.6428337Q17.7932,6.0907373,17.255775,5.9726739Q16.707541,5.8522367,16.352316,6.3201671Q15.755165,7.1067872,14.752929,8.8133268Q14.371883,9.4621487,14.180974,9.7736464Q12.26729,12.896175,11.298175,14.131444Q10.403481,15.271864,9.5733595,15.922341Q8.1977959,17.000235,6.72857,17.000002Q3.4927406,16.999474,2.1820672,14.553842Q1.7189167,13.68963,1.3561282,12.187016Q1.1546633,11.352578,0.7254656,9.1274605Q0.3488172,7.1747751,0.089630671,5.9228077L0.053253084,5.7450919Q-0.15161799,4.7633801,0.43167442,3.9115605Q1.014967,3.0597415,2.0447383,2.8367991Q3.0745101,2.6138561,3.9475331,3.1503875Q4.8205566,3.6869183,5.0254283,4.6686296L5.0622082,4.8448744Q5.3287597,6.1300015,5.7123203,8.1185102Q5.9587731,9.4344835,6.1556201,10.338398Q6.2791333,10.905566,6.840035,11.018273Q7.409492,11.132699,7.7623672,10.645214Q8.358305,9.8219557,9.4052677,8.0895443Q9.6861286,7.6247997,9.8268404,7.3952045Q11.739985,4.2735572,12.719088,3.0169904Q13.612099,1.8709089,14.437955,1.1994176Q15.752899,0.13025522,17.155331,0.023017723Q20.486448,-0.23169568,21.869026,2.3322437Q22.331671,3.1902001,22.694746,4.6881666Q22.895426,5.5161371,23.319862,7.7081723Q23.671869,9.5260859,23.910526,10.679235L23.946747,10.856247Q24.151617,11.83796,23.568323,12.689781Q22.985031,13.541602,21.955265,13.764544Q20.925491,13.987487,20.052467,13.450955Q19.179447,12.914426,18.974575,11.932712L18.937664,11.755846Q18.692116,10.571681,18.333565,8.719965Z" fill-rule="evenodd" fill="#000000" fill-opacity="1"/></svg>